<svg width="26" height="31" viewBox="0 0 26 31" fill="none" xmlns="http://www.w3.org/2000/svg">
<path fill-rule="evenodd" clip-rule="evenodd" d="M16.5931 0.802393C17.0235 1.04231 17.2347 1.54478 17.1051 2.02012L14.2599 12.4525H24.6428C25.0695 12.4525 25.4554 12.7056 25.6255 13.0969C25.7955 13.4882 25.7172 13.9431 25.4261 14.2549L10.4261 30.3263C10.09 30.6865 9.55147 30.771 9.12113 30.5311C8.69079 30.2912 8.47955 29.7887 8.60918 29.3134L11.4544 18.881H1.07145C0.644811 18.881 0.25883 18.6279 0.0887941 18.2366C-0.081242 17.8453 -0.00292536 17.3904 0.288178 17.0785L15.2881 1.00716C15.6243 0.646968 16.1628 0.562476 16.5931 0.802393Z" fill="#EBFF00"/>
</svg>
