<svg width="129" height="34" viewBox="0 0 129 34" fill="none" xmlns="http://www.w3.org/2000/svg">
<path d="M10.8208 0L18.7065 7.77643L13.2962 13.1118L5.41038 5.33536L10.8208 0Z" fill="white"/>
<path d="M18.7065 7.77643L26.5923 15.5529L21.1819 20.8882L13.2962 13.1118L18.7065 7.77643Z" fill="white"/>
<path d="M5.41038 5.33536L13.2962 13.1118L7.88578 18.4471L0 10.6707L5.41038 5.33536Z" fill="white"/>
<path d="M21.1819 20.8882L29.0677 28.6646L23.6573 34L15.7716 26.2236L21.1819 20.8882Z" fill="white"/>
<path d="M7.88578 18.4471L15.7716 26.2236L10.3612 31.5589L2.4754 23.7825L7.88578 18.4471Z" fill="white"/>
<path d="M36.1921 30.1196V8.90541H40.7403V17.6583H49.9735V8.90541H54.5113V30.1196H49.9735V21.3563H40.7403V30.1196H36.1921Z" fill="white"/>
<path d="M63.9418 30.4303C62.3102 30.4303 60.8991 30.0885 59.7087 29.4048C58.5252 28.7143 57.6114 27.7544 56.9671 26.5252C56.3228 25.2891 56.0007 23.8561 56.0007 22.2264C56.0007 20.5829 56.3228 19.1465 56.9671 17.9173C57.6114 16.6812 58.5252 15.7213 59.7087 15.0376C60.8991 14.3471 62.3102 14.0018 63.9418 14.0018C65.5735 14.0018 66.981 14.3471 68.1645 15.0376C69.355 15.7213 70.2723 16.6812 70.9166 17.9173C71.5608 19.1465 71.883 20.5829 71.883 22.2264C71.883 23.8561 71.5608 25.2891 70.9166 26.5252C70.2723 27.7544 69.355 28.7143 68.1645 29.4048C66.981 30.0885 65.5735 30.4303 63.9418 30.4303ZM63.9628 27.012C64.7051 27.012 65.3249 26.8048 65.8221 26.3905C66.3193 25.9693 66.6939 25.3961 66.946 24.671C67.2051 23.9459 67.3347 23.1207 67.3347 22.1953C67.3347 21.27 67.2051 20.4447 66.946 19.7197C66.6939 18.9946 66.3193 18.4214 65.8221 18.0001C65.3249 17.5789 64.7051 17.3683 63.9628 17.3683C63.2136 17.3683 62.5833 17.5789 62.0721 18.0001C61.5679 18.4214 61.1863 18.9946 60.9272 19.7197C60.6751 20.4447 60.549 21.27 60.549 22.1953C60.549 23.1207 60.6751 23.9459 60.9272 24.671C61.1863 25.3961 61.5679 25.9693 62.0721 26.3905C62.5833 26.8048 63.2136 27.012 63.9628 27.012Z" fill="white"/>
<path d="M73.3815 30.1196V14.2089H77.6462V17.0161H77.8353C78.1714 16.0838 78.7317 15.3484 79.516 14.8097C80.3003 14.2711 81.2386 14.0018 82.3311 14.0018C83.4375 14.0018 84.3794 14.2746 85.1567 14.8201C85.934 15.3587 86.4522 16.0907 86.7113 17.0161H86.8794C87.2085 16.1045 87.8037 15.376 88.665 14.8305C89.5334 14.278 90.5593 14.0018 91.7428 14.0018C93.2484 14.0018 94.4703 14.4748 95.4087 15.4209C96.3541 16.3601 96.8268 17.6928 96.8268 19.4193V30.1196H92.3625C92.3625 30.1196 92.3625 21.1733 92.3625 20.2894C92.3625 19.4054 92.1244 18.7425 91.6482 18.3005C91.172 17.8586 90.5768 17.6376 89.8625 17.6376C89.0502 17.6376 88.4165 17.8931 87.9613 18.4041C87.5061 18.9082 87.2785 19.5746 87.2785 20.4033V30.1196H82.9403V20.1961C82.9403 19.4158 82.7127 18.7943 82.2575 18.3316C81.8094 17.8689 81.2176 17.6376 80.4823 17.6376C79.9851 17.6376 79.537 17.7619 79.1378 18.0105C78.7457 18.2522 78.434 18.594 78.2029 19.036C77.9719 19.4711 77.8563 19.9821 77.8563 20.569V30.1196H73.3815Z" fill="white"/>
<path d="M98.6755 30.1192V8.90505H113.171V12.603H103.224V17.658H113.171V21.3559H103.224V26.4212H113.213V30.1192H98.6755Z" fill="white"/>
<path d="M118.286 17.658L121.248 21.4319L124.284 17.658H128.874L124.2 23.8247L129 30.1192H124.431L121.248 26.2796L118.118 30.1192H113.58L118.286 23.8247L113.58 17.658H118.286Z" fill="white"/>
</svg>
