<svg width="120" height="33" viewBox="0 0 120 33" fill="none" xmlns="http://www.w3.org/2000/svg">
<path d="M10.0658 0.5L17.4014 7.81899L12.3685 12.8405L5.03291 5.52151L10.0658 0.5Z" fill="#02362D"/>
<path d="M17.4014 7.81899L24.737 15.138L19.7041 20.1595L12.3685 12.8405L17.4014 7.81899Z" fill="#02362D"/>
<path d="M5.03291 5.52151L12.3685 12.8405L7.33561 17.862L0 10.543L5.03291 5.52151Z" fill="#02362D"/>
<path d="M19.7041 20.1595L27.0397 27.4785L22.0068 32.5L14.6712 25.181L19.7041 20.1595Z" fill="#02362D"/>
<path d="M7.33561 17.862L14.6712 25.181L9.6383 30.2025L2.30269 22.8835L7.33561 17.862Z" fill="#02362D"/>
<path d="M33.667 28.8478V8.88157H37.898V17.1196H46.487V8.88157H50.7081V28.8478H46.487V20.6H37.898V28.8478H33.667Z" fill="#02362D"/>
<path d="M59.4808 29.1403C57.963 29.1403 56.6504 28.8186 55.543 28.1751C54.4421 27.5252 53.592 26.6218 52.9927 25.4649C52.3933 24.3015 52.0937 22.9528 52.0937 21.419C52.0937 19.8721 52.3933 18.5202 52.9927 17.3633C53.592 16.1999 54.4421 15.2965 55.543 14.6531C56.6504 14.0031 57.963 13.6781 59.4808 13.6781C60.9986 13.6781 62.3079 14.0031 63.4088 14.6531C64.5163 15.2965 65.3696 16.1999 65.9689 17.3633C66.5682 18.5202 66.8679 19.8721 66.8679 21.419C66.8679 22.9528 66.5682 24.3015 65.9689 25.4649C65.3696 26.6218 64.5163 27.5252 63.4088 28.1751C62.3079 28.8186 60.9986 29.1403 59.4808 29.1403ZM59.5003 25.9231C60.1908 25.9231 60.7673 25.7281 61.2298 25.3381C61.6924 24.9417 62.0409 24.4022 62.2754 23.7198C62.5164 23.0373 62.6369 22.2606 62.6369 21.3897C62.6369 20.5188 62.5164 19.7421 62.2754 19.0597C62.0409 18.3772 61.6924 17.8378 61.2298 17.4413C60.7673 17.0449 60.1908 16.8466 59.5003 16.8466C58.8033 16.8466 58.217 17.0449 57.7415 17.4413C57.2725 17.8378 56.9175 18.3772 56.6764 19.0597C56.4419 19.7421 56.3247 20.5188 56.3247 21.3897C56.3247 22.2606 56.4419 23.0373 56.6764 23.7198C56.9175 24.4022 57.2725 24.9417 57.7415 25.3381C58.217 25.7281 58.8033 25.9231 59.5003 25.9231Z" fill="#02362D"/>
<path d="M68.2619 28.8478V13.8731H72.229V16.5152H72.4049C72.7176 15.6377 73.2387 14.9455 73.9683 14.4386C74.6979 13.9316 75.5708 13.6781 76.587 13.6781C77.6163 13.6781 78.4924 13.9349 79.2155 14.4483C79.9386 14.9553 80.4206 15.6442 80.6617 16.5152H80.818C81.1242 15.6572 81.6779 14.9715 82.4791 14.4581C83.2869 13.9381 84.2412 13.6781 85.3421 13.6781C86.7427 13.6781 87.8794 14.1234 88.7523 15.0138C89.6317 15.8977 90.0714 17.1521 90.0714 18.777V28.8478H85.9186C85.9186 28.8478 85.9186 20.4278 85.9186 19.5959C85.9186 18.764 85.6971 18.14 85.2542 17.724C84.8112 17.3081 84.2575 17.1001 83.593 17.1001C82.8374 17.1001 82.2479 17.3406 81.8244 17.8215C81.401 18.296 81.1893 18.9232 81.1893 19.7031V28.8478H77.1538V19.5081C77.1538 18.7737 76.9421 18.1888 76.5186 17.7533C76.1017 17.3178 75.5513 17.1001 74.8673 17.1001C74.4048 17.1001 73.9879 17.2171 73.6166 17.4511C73.2518 17.6785 72.9619 18.0003 72.7469 18.4162C72.532 18.8257 72.4245 19.3067 72.4245 19.8591V28.8478H68.2619Z" fill="#02362D"/>
<path d="M91.7912 28.8475V8.88122H105.276V12.3617H96.0221V17.1193H105.276V20.5997H96.0221V25.367H105.315V28.8475H91.7912Z" fill="#02362D"/>
<path d="M110.033 17.1193L112.789 20.6712L115.613 17.1193H119.883L115.535 22.9232L120 28.8475H115.75L112.789 25.2338L109.877 28.8475H105.656L110.033 22.9232L105.656 17.1193H110.033Z" fill="#02362D"/>
</svg>
