<svg width="18" height="18" viewBox="0 0 18 18" fill="none" xmlns="http://www.w3.org/2000/svg">
<path d="M17.25 4.625C17.25 6.69607 15.5711 8.375 13.5 8.375C13.3922 8.375 13.2854 8.37045 13.1799 8.36153C12.2837 8.28577 11.293 8.42101 10.7212 9.11529L4.76193 16.3516C4.35864 16.8413 3.75748 17.125 3.12307 17.125C1.95053 17.125 1 16.1745 1 15.0019C1 14.3675 1.2837 13.7664 1.77342 13.3631L9.00971 7.40377C9.70399 6.83201 9.83923 5.8413 9.76347 4.94509C9.75455 4.83958 9.75 4.73282 9.75 4.625C9.75 2.55393 11.4289 0.875 13.5 0.875C14.0503 0.875 14.5729 0.993528 15.0437 1.20645L12.3135 3.93664C12.5269 4.86636 13.2588 5.59821 14.1885 5.81164L16.9186 3.08149C17.1315 3.55223 17.25 4.07478 17.25 4.625Z" stroke="#181818" stroke-width="1.5" stroke-linecap="round" stroke-linejoin="round"/>
<path d="M3.18103 14.9375H3.18728V14.9438H3.18103V14.9375Z" stroke="#181818" stroke-width="1.5" stroke-linecap="round" stroke-linejoin="round"/>
</svg>
